<svg xmlns="http://www.w3.org/2000/svg" xmlns:xlink="http://www.w3.org/1999/xlink" width="500" zoomAndPan="magnify" viewBox="0 0 375 374.999991" height="500" preserveAspectRatio="xMidYMid meet" version="1.2"><g id="d31e6addee"><path style=" stroke:none;fill-rule:nonzero;fill:#1a1a2e;fill-opacity:1;" d="M 81.835938 8.769531 L 289.105469 8.769531 C 290.320312 8.769531 291.53125 8.796875 292.738281 8.855469 C 293.949219 8.917969 295.15625 9.003906 296.363281 9.125 C 297.570312 9.242188 298.769531 9.390625 299.96875 9.570312 C 301.167969 9.746094 302.359375 9.953125 303.550781 10.191406 C 304.738281 10.425781 305.917969 10.691406 307.09375 10.984375 C 308.269531 11.28125 309.4375 11.605469 310.597656 11.957031 C 311.753906 12.308594 312.90625 12.6875 314.046875 13.09375 C 315.1875 13.503906 316.316406 13.9375 317.4375 14.402344 C 318.554688 14.867188 319.664062 15.355469 320.757812 15.875 C 321.851562 16.394531 322.933594 16.9375 324.003906 17.507812 C 325.070312 18.078125 326.125 18.675781 327.164062 19.300781 C 328.203125 19.921875 329.226562 20.570312 330.234375 21.242188 C 331.242188 21.917969 332.230469 22.613281 333.203125 23.335938 C 334.175781 24.058594 335.132812 24.800781 336.070312 25.570312 C 337.003906 26.339844 337.921875 27.128906 338.820312 27.945312 C 339.71875 28.757812 340.59375 29.59375 341.453125 30.449219 C 342.308594 31.304688 343.144531 32.183594 343.957031 33.082031 C 344.769531 33.980469 345.5625 34.894531 346.328125 35.832031 C 347.097656 36.769531 347.84375 37.722656 348.566406 38.695312 C 349.289062 39.667969 349.984375 40.660156 350.65625 41.667969 C 351.332031 42.675781 351.980469 43.699219 352.601562 44.738281 C 353.222656 45.777344 353.820312 46.828125 354.390625 47.898438 C 354.964844 48.964844 355.507812 50.046875 356.027344 51.144531 C 356.542969 52.238281 357.035156 53.347656 357.5 54.464844 C 357.960938 55.585938 358.398438 56.714844 358.804688 57.855469 C 359.214844 58.996094 359.59375 60.144531 359.945312 61.304688 C 360.296875 62.464844 360.621094 63.632812 360.914062 64.808594 C 361.210938 65.980469 361.472656 67.164062 361.710938 68.351562 C 361.945312 69.539062 362.152344 70.734375 362.332031 71.933594 C 362.507812 73.128906 362.65625 74.332031 362.777344 75.539062 C 362.894531 76.742188 362.984375 77.953125 363.042969 79.160156 C 363.101562 80.371094 363.132812 81.582031 363.132812 82.792969 L 363.132812 290.066406 C 363.132812 291.277344 363.101562 292.488281 363.042969 293.699219 C 362.984375 294.910156 362.894531 296.117188 362.777344 297.324219 C 362.65625 298.527344 362.507812 299.730469 362.332031 300.929688 C 362.152344 302.128906 361.945312 303.320312 361.710938 304.507812 C 361.472656 305.695312 361.210938 306.878906 360.914062 308.054688 C 360.621094 309.230469 360.296875 310.394531 359.945312 311.554688 C 359.59375 312.714844 359.214844 313.863281 358.804688 315.003906 C 358.398438 316.144531 357.960938 317.277344 357.5 318.394531 C 357.035156 319.515625 356.542969 320.621094 356.027344 321.71875 C 355.507812 322.8125 354.964844 323.894531 354.390625 324.960938 C 353.820312 326.03125 353.222656 327.085938 352.601562 328.125 C 351.980469 329.164062 351.332031 330.1875 350.65625 331.195312 C 349.984375 332.199219 349.289062 333.191406 348.566406 334.164062 C 347.84375 335.136719 347.097656 336.09375 346.328125 337.027344 C 345.5625 337.964844 344.769531 338.882812 343.957031 339.78125 C 343.144531 340.675781 342.308594 341.554688 341.453125 342.410156 C 340.59375 343.269531 339.71875 344.101562 338.820312 344.917969 C 337.921875 345.730469 337.003906 346.519531 336.070312 347.289062 C 335.132812 348.058594 334.175781 348.804688 333.203125 349.523438 C 332.230469 350.246094 331.242188 350.945312 330.234375 351.617188 C 329.226562 352.289062 328.203125 352.9375 327.164062 353.5625 C 326.125 354.183594 325.070312 354.78125 324.003906 355.351562 C 322.933594 355.921875 321.851562 356.46875 320.757812 356.984375 C 319.664062 357.503906 318.554688 357.996094 317.4375 358.457031 C 316.316406 358.921875 315.1875 359.355469 314.046875 359.765625 C 312.90625 360.171875 311.753906 360.554688 310.597656 360.90625 C 309.4375 361.257812 308.269531 361.578125 307.09375 361.875 C 305.917969 362.167969 304.738281 362.433594 303.550781 362.671875 C 302.359375 362.90625 301.167969 363.113281 299.96875 363.292969 C 298.769531 363.46875 297.570312 363.617188 296.363281 363.738281 C 295.15625 363.855469 293.949219 363.945312 292.738281 364.003906 C 291.53125 364.0625 290.320312 364.09375 289.105469 364.09375 L 81.835938 364.09375 C 80.621094 364.09375 79.410156 364.0625 78.203125 364.003906 C 76.992188 363.945312 75.785156 363.855469 74.578125 363.738281 C 73.371094 363.617188 72.171875 363.46875 70.972656 363.292969 C 69.773438 363.113281 68.582031 362.90625 67.390625 362.671875 C 66.203125 362.433594 65.023438 362.167969 63.847656 361.875 C 62.671875 361.578125 61.503906 361.257812 60.34375 360.90625 C 59.1875 360.554688 58.035156 360.171875 56.894531 359.765625 C 55.753906 359.355469 54.625 358.921875 53.503906 358.457031 C 52.386719 357.996094 51.277344 357.503906 50.183594 356.984375 C 49.089844 356.46875 48.007812 355.921875 46.9375 355.351562 C 45.871094 354.78125 44.816406 354.183594 43.777344 353.5625 C 42.738281 352.9375 41.714844 352.289062 40.707031 351.617188 C 39.699219 350.945312 38.710938 350.246094 37.738281 349.523438 C 36.765625 348.804688 35.808594 348.058594 34.871094 347.289062 C 33.9375 346.519531 33.019531 345.730469 32.121094 344.917969 C 31.222656 344.101562 30.347656 343.269531 29.488281 342.410156 C 28.632812 341.554688 27.796875 340.675781 26.984375 339.78125 C 26.171875 338.882812 25.378906 337.964844 24.609375 337.027344 C 23.84375 336.09375 23.097656 335.136719 22.375 334.164062 C 21.652344 333.191406 20.957031 332.199219 20.285156 331.195312 C 19.609375 330.1875 18.960938 329.164062 18.339844 328.125 C 17.71875 327.085938 17.121094 326.03125 16.550781 324.960938 C 15.976562 323.894531 15.433594 322.8125 14.914062 321.71875 C 14.398438 320.621094 13.90625 319.515625 13.441406 318.394531 C 12.980469 317.277344 12.542969 316.144531 12.136719 315.003906 C 11.726562 313.863281 11.347656 312.714844 10.996094 311.554688 C 10.644531 310.394531 10.320312 309.230469 10.027344 308.054688 C 9.730469 306.878906 9.46875 305.695312 9.230469 304.507812 C 8.992188 303.320312 8.785156 302.128906 8.609375 300.929688 C 8.429688 299.730469 8.285156 298.527344 8.164062 297.324219 C 8.046875 296.117188 7.957031 294.910156 7.898438 293.699219 C 7.835938 292.488281 7.808594 291.277344 7.808594 290.066406 L 7.808594 82.792969 C 7.808594 81.582031 7.835938 80.371094 7.898438 79.160156 C 7.957031 77.953125 8.046875 76.742188 8.164062 75.539062 C 8.285156 74.332031 8.429688 73.128906 8.609375 71.933594 C 8.785156 70.734375 8.992188 69.539062 9.230469 68.351562 C 9.46875 67.164062 9.730469 65.980469 10.027344 64.808594 C 10.320312 63.632812 10.644531 62.464844 10.996094 61.304688 C 11.347656 60.144531 11.726562 58.996094 12.136719 57.855469 C 12.542969 56.714844 12.980469 55.585938 13.441406 54.464844 C 13.90625 53.347656 14.398438 52.238281 14.914062 51.144531 C 15.433594 50.046875 15.976562 48.964844 16.550781 47.898438 C 17.121094 46.828125 17.71875 45.777344 18.339844 44.738281 C 18.960938 43.699219 19.609375 42.675781 20.285156 41.667969 C 20.957031 40.660156 21.652344 39.667969 22.375 38.695312 C 23.097656 37.722656 23.84375 36.769531 24.609375 35.832031 C 25.378906 34.894531 26.171875 33.980469 26.984375 33.082031 C 27.796875 32.183594 28.632812 31.304688 29.488281 30.449219 C 30.347656 29.59375 31.222656 28.757812 32.121094 27.945312 C 33.019531 27.128906 33.9375 26.339844 34.871094 25.570312 C 35.808594 24.800781 36.765625 24.058594 37.738281 23.335938 C 38.710938 22.613281 39.699219 21.917969 40.707031 21.242188 C 41.714844 20.570312 42.738281 19.921875 43.777344 19.300781 C 44.816406 18.675781 45.871094 18.078125 46.9375 17.507812 C 48.007812 16.9375 49.089844 16.394531 50.183594 15.875 C 51.277344 15.355469 52.386719 14.867188 53.503906 14.402344 C 54.625 13.9375 55.753906 13.503906 56.894531 13.09375 C 58.035156 12.6875 59.1875 12.308594 60.34375 11.957031 C 61.503906 11.605469 62.671875 11.28125 63.847656 10.984375 C 65.023438 10.691406 66.203125 10.425781 67.390625 10.191406 C 68.582031 9.953125 69.773438 9.746094 70.972656 9.570312 C 72.171875 9.390625 73.371094 9.242188 74.578125 9.125 C 75.785156 9.003906 76.992188 8.917969 78.203125 8.855469 C 79.410156 8.796875 80.621094 8.769531 81.835938 8.769531 Z M 81.835938 8.769531 "/><path style="fill:none;stroke-width:4;stroke-linecap:round;stroke-linejoin:round;stroke:#00e5ff;stroke-opacity:1;stroke-miterlimit:4;" d="M 15.99957 27.999496 L 32.000055 66.000252 L 47.999485 27.999496 L 63.99997 66.000252 L 80.000455 27.999496 " transform="matrix(3.701304,0,0,3.701304,7.808075,8.767704)"/><path style="fill-rule:nonzero;fill:#737373;fill-opacity:1;stroke-width:4;stroke-linecap:round;stroke-linejoin:round;stroke:#00e5ff;stroke-opacity:1;stroke-miterlimit:4;" d="M 18.999991 27.999496 C 18.999991 28.19685 18.980994 28.392094 18.941945 28.585227 C 18.903952 28.77836 18.846962 28.966216 18.77203 29.14774 C 18.696044 29.330319 18.604226 29.5034 18.494468 29.666982 C 18.384709 29.830565 18.260175 29.982539 18.120866 30.120792 C 17.981557 30.260101 17.830639 30.384635 17.667057 30.494394 C 17.502419 30.604152 17.330393 30.69597 17.147814 30.771956 C 16.96629 30.846888 16.778434 30.903878 16.585301 30.941871 C 16.392168 30.98092 16.196924 30.999916 15.99957 30.999916 C 15.803271 30.999916 15.608027 30.98092 15.414894 30.941871 C 15.221761 30.903878 15.033905 30.846888 14.852381 30.771956 C 14.669802 30.69597 14.496721 30.604152 14.333139 30.494394 C 14.169556 30.384635 14.017582 30.260101 13.878273 30.120792 C 13.738964 29.982539 13.615486 29.830565 13.505727 29.666982 C 13.395969 29.5034 13.304151 29.330319 13.228165 29.14774 C 13.153233 28.966216 13.096243 28.77836 13.057195 28.585227 C 13.019201 28.392094 13.000204 28.19685 13.000204 27.999496 C 13.000204 27.803197 13.019201 27.607953 13.057195 27.41482 C 13.096243 27.221687 13.153233 27.033831 13.228165 26.852307 C 13.304151 26.669728 13.395969 26.496647 13.505727 26.333064 C 13.615486 26.169482 13.738964 26.017508 13.878273 25.878199 C 14.017582 25.73889 14.169556 25.615412 14.333139 25.505653 C 14.496721 25.395895 14.669802 25.304077 14.852381 25.228091 C 15.033905 25.153159 15.221761 25.096169 15.414894 25.05712 C 15.608027 25.019127 15.803271 25.00013 15.99957 25.00013 C 16.196924 25.00013 16.392168 25.019127 16.585301 25.05712 C 16.778434 25.096169 16.96629 25.153159 17.147814 25.228091 C 17.330393 25.304077 17.502419 25.395895 17.667057 25.505653 C 17.830639 25.615412 17.981557 25.73889 18.120866 25.878199 C 18.260175 26.017508 18.384709 26.169482 18.494468 26.333064 C 18.604226 26.496647 18.696044 26.669728 18.77203 26.852307 C 18.846962 27.033831 18.903952 27.221687 18.941945 27.41482 C 18.980994 27.607953 18.999991 27.803197 18.999991 27.999496 Z M 18.999991 27.999496 " transform="matrix(3.701304,0,0,3.701304,7.808075,8.767704)"/><path style="fill-rule:nonzero;fill:#737373;fill-opacity:1;stroke-width:4;stroke-linecap:round;stroke-linejoin:round;stroke:#00e5ff;stroke-opacity:1;stroke-miterlimit:4;" d="M 35.000476 66.000252 C 35.000476 66.196551 34.980424 66.391795 34.94243 66.584928 C 34.904437 66.778061 34.847447 66.965917 34.77146 67.148496 C 34.696529 67.33002 34.603656 67.503101 34.493898 67.666684 C 34.385194 67.830266 34.260661 67.98224 34.121351 68.121549 C 33.982042 68.260858 33.830069 68.385391 33.666486 68.494095 C 33.502904 68.603853 33.329823 68.696726 33.148299 68.771657 C 32.96572 68.846589 32.778919 68.903579 32.585786 68.942628 C 32.391598 68.980621 32.19741 68.999618 32.000055 68.999618 C 31.802701 68.999618 31.607457 68.980621 31.414324 68.942628 C 31.221191 68.903579 31.03439 68.846589 30.851811 68.771657 C 30.670287 68.696726 30.497206 68.603853 30.333624 68.494095 C 30.168986 68.385391 30.018068 68.260858 29.878759 68.121549 C 29.73945 67.98224 29.614916 67.830266 29.505157 67.666684 C 29.396454 67.503101 29.303581 67.33002 29.22865 67.148496 C 29.152663 66.965917 29.095673 66.778061 29.05768 66.584928 C 29.019686 66.391795 28.999634 66.196551 28.999634 66.000252 C 28.999634 65.802898 29.019686 65.607654 29.05768 65.414521 C 29.095673 65.221388 29.152663 65.033532 29.22865 64.852008 C 29.303581 64.669429 29.396454 64.497403 29.505157 64.332765 C 29.614916 64.169183 29.73945 64.018265 29.878759 63.878956 C 30.018068 63.739647 30.168986 63.615113 30.333624 63.505354 C 30.497206 63.396651 30.670287 63.303778 30.851811 63.228847 C 31.03439 63.15286 31.221191 63.09587 31.414324 63.057877 C 31.607457 63.018828 31.802701 62.999831 32.000055 62.999831 C 32.19741 62.999831 32.391598 63.018828 32.585786 63.057877 C 32.778919 63.09587 32.96572 63.15286 33.148299 63.228847 C 33.329823 63.303778 33.502904 63.396651 33.666486 63.505354 C 33.830069 63.615113 33.982042 63.739647 34.121351 63.878956 C 34.260661 64.018265 34.385194 64.169183 34.493898 64.332765 C 34.603656 64.497403 34.696529 64.669429 34.77146 64.852008 C 34.847447 65.033532 34.904437 65.221388 34.94243 65.414521 C 34.980424 65.607654 35.000476 65.802898 35.000476 66.000252 Z M 35.000476 66.000252 " transform="matrix(3.701304,0,0,3.701304,7.808075,8.767704)"/><path style="fill-rule:nonzero;fill:#737373;fill-opacity:1;stroke-width:4;stroke-linecap:round;stroke-linejoin:round;stroke:#00e5ff;stroke-opacity:1;stroke-miterlimit:4;" d="M 50.999906 27.999496 C 50.999906 28.19685 50.980909 28.392094 50.94186 28.585227 C 50.903867 28.77836 50.846877 28.966216 50.771945 29.14774 C 50.695959 29.330319 50.604141 29.5034 50.494383 29.666982 C 50.384624 29.830565 50.26009 29.982539 50.121837 30.120792 C 49.982528 30.260101 49.830554 30.384635 49.666972 30.494394 C 49.503389 30.604152 49.330308 30.69597 49.147729 30.771956 C 48.966205 30.846888 48.778349 30.903878 48.585216 30.941871 C 48.392083 30.98092 48.196839 30.999916 47.999485 30.999916 C 47.803186 30.999916 47.607942 30.98092 47.414809 30.941871 C 47.221676 30.903878 47.03382 30.846888 46.852296 30.771956 C 46.669717 30.69597 46.496636 30.604152 46.333053 30.494394 C 46.169471 30.384635 46.017497 30.260101 45.878188 30.120792 C 45.738879 29.982539 45.615401 29.830565 45.505642 29.666982 C 45.395884 29.5034 45.304066 29.330319 45.22808 29.14774 C 45.153148 28.966216 45.096158 28.77836 45.058165 28.585227 C 45.019116 28.392094 45.000119 28.19685 45.000119 27.999496 C 45.000119 27.803197 45.019116 27.607953 45.058165 27.41482 C 45.096158 27.221687 45.153148 27.033831 45.22808 26.852307 C 45.304066 26.669728 45.395884 26.496647 45.505642 26.333064 C 45.615401 26.169482 45.738879 26.017508 45.878188 25.878199 C 46.017497 25.73889 46.169471 25.615412 46.333053 25.505653 C 46.496636 25.395895 46.669717 25.304077 46.852296 25.228091 C 47.03382 25.153159 47.221676 25.096169 47.414809 25.05712 C 47.607942 25.019127 47.803186 25.00013 47.999485 25.00013 C 48.196839 25.00013 48.392083 25.019127 48.585216 25.05712 C 48.778349 25.096169 48.966205 25.153159 49.147729 25.228091 C 49.330308 25.304077 49.503389 25.395895 49.666972 25.505653 C 49.830554 25.615412 49.982528 25.73889 50.121837 25.878199 C 50.26009 26.017508 50.384624 26.169482 50.494383 26.333064 C 50.604141 26.496647 50.695959 26.669728 50.771945 26.852307 C 50.846877 27.033831 50.903867 27.221687 50.94186 27.41482 C 50.980909 27.607953 50.999906 27.803197 50.999906 27.999496 Z M 50.999906 27.999496 " transform="matrix(3.701304,0,0,3.701304,7.808075,8.767704)"/><path style="fill-rule:nonzero;fill:#737373;fill-opacity:1;stroke-width:4;stroke-linecap:round;stroke-linejoin:round;stroke:#00e5ff;stroke-opacity:1;stroke-miterlimit:4;" d="M 67.000391 66.000252 C 67.000391 66.196551 66.980339 66.391795 66.942345 66.584928 C 66.904352 66.778061 66.847362 66.965917 66.771375 67.148496 C 66.696444 67.33002 66.603571 67.503101 66.494868 67.666684 C 66.385109 67.830266 66.260575 67.98224 66.121266 68.121549 C 65.981957 68.260858 65.829984 68.385391 65.666401 68.494095 C 65.502819 68.603853 65.329738 68.696726 65.148214 68.771657 C 64.965635 68.846589 64.778834 68.903579 64.585701 68.942628 C 64.392568 68.980621 64.197324 68.999618 63.99997 68.999618 C 63.802616 68.999618 63.608427 68.980621 63.414239 68.942628 C 63.221106 68.903579 63.034305 68.846589 62.851726 68.771657 C 62.670202 68.696726 62.497121 68.603853 62.333539 68.494095 C 62.169956 68.385391 62.017983 68.260858 61.878674 68.121549 C 61.739365 67.98224 61.614831 67.830266 61.505072 67.666684 C 61.396369 67.503101 61.303496 67.33002 61.228565 67.148496 C 61.152578 66.965917 61.095588 66.778061 61.057595 66.584928 C 61.019601 66.391795 60.999549 66.196551 60.999549 66.000252 C 60.999549 65.802898 61.019601 65.607654 61.057595 65.414521 C 61.095588 65.221388 61.152578 65.033532 61.228565 64.852008 C 61.303496 64.669429 61.396369 64.497403 61.505072 64.332765 C 61.614831 64.169183 61.739365 64.018265 61.878674 63.878956 C 62.017983 63.739647 62.169956 63.615113 62.333539 63.505354 C 62.497121 63.396651 62.670202 63.303778 62.851726 63.228847 C 63.034305 63.15286 63.221106 63.09587 63.414239 63.057877 C 63.608427 63.018828 63.802616 62.999831 63.99997 62.999831 C 64.197324 62.999831 64.392568 63.018828 64.585701 63.057877 C 64.778834 63.09587 64.965635 63.15286 65.148214 63.228847 C 65.329738 63.303778 65.502819 63.396651 65.666401 63.505354 C 65.829984 63.615113 65.981957 63.739647 66.121266 63.878956 C 66.260575 64.018265 66.385109 64.169183 66.494868 64.332765 C 66.603571 64.497403 66.696444 64.669429 66.771375 64.852008 C 66.847362 65.033532 66.904352 65.221388 66.942345 65.414521 C 66.980339 65.607654 67.000391 65.802898 67.000391 66.000252 Z M 67.000391 66.000252 " transform="matrix(3.701304,0,0,3.701304,7.808075,8.767704)"/><path style="fill-rule:nonzero;fill:#737373;fill-opacity:1;stroke-width:4;stroke-linecap:round;stroke-linejoin:round;stroke:#00e5ff;stroke-opacity:1;stroke-miterlimit:4;" d="M 82.999821 27.999496 C 82.999821 28.19685 82.980824 28.392094 82.942831 28.585227 C 82.903782 28.77836 82.846792 28.966216 82.77186 29.14774 C 82.695874 29.330319 82.604056 29.5034 82.494298 29.666982 C 82.384539 29.830565 82.261061 29.982539 82.121752 30.120792 C 81.982443 30.260101 81.830469 30.384635 81.666887 30.494394 C 81.503304 30.604152 81.330223 30.69597 81.147644 30.771956 C 80.96612 30.846888 80.778264 30.903878 80.585131 30.941871 C 80.391998 30.98092 80.196754 30.999916 80.000455 30.999916 C 79.803101 30.999916 79.607857 30.98092 79.414724 30.941871 C 79.221591 30.903878 79.033735 30.846888 78.852211 30.771956 C 78.669632 30.69597 78.496551 30.604152 78.332968 30.494394 C 78.169386 30.384635 78.018468 30.260101 77.879159 30.120792 C 77.73985 29.982539 77.615316 29.830565 77.505557 29.666982 C 77.395799 29.5034 77.303981 29.330319 77.227995 29.14774 C 77.153063 28.966216 77.096073 28.77836 77.05808 28.585227 C 77.019031 28.392094 77.000034 28.19685 77.000034 27.999496 C 77.000034 27.803197 77.019031 27.607953 77.05808 27.41482 C 77.096073 27.221687 77.153063 27.033831 77.227995 26.852307 C 77.303981 26.669728 77.395799 26.496647 77.505557 26.333064 C 77.615316 26.169482 77.73985 26.017508 77.879159 25.878199 C 78.018468 25.73889 78.169386 25.615412 78.332968 25.505653 C 78.496551 25.395895 78.669632 25.304077 78.852211 25.228091 C 79.033735 25.153159 79.221591 25.096169 79.414724 25.05712 C 79.607857 25.019127 79.803101 25.00013 80.000455 25.00013 C 80.196754 25.00013 80.391998 25.019127 80.585131 25.05712 C 80.778264 25.096169 80.96612 25.153159 81.147644 25.228091 C 81.330223 25.304077 81.503304 25.395895 81.666887 25.505653 C 81.830469 25.615412 81.982443 25.73889 82.121752 25.878199 C 82.261061 26.017508 82.384539 26.169482 82.494298 26.333064 C 82.604056 26.496647 82.695874 26.669728 82.77186 26.852307 C 82.846792 27.033831 82.903782 27.221687 82.942831 27.41482 C 82.980824 27.607953 82.999821 27.803197 82.999821 27.999496 Z M 82.999821 27.999496 " transform="matrix(3.701304,0,0,3.701304,7.808075,8.767704)"/></g></svg>